<svg xmlns="http://www.w3.org/2000/svg" xmlns:xlink="http://www.w3.org/1999/xlink" width="512" height="512" viewBox="8.238281 -7.554687 81.148438 81.148438" preserveAspectRatio="xMidYMid meet" role="img" aria-label="High Level Thai"><defs><g/><clipPath id="f7c8e56ad6"><path d="M 8.238281 4.730469 L 89.386719 4.730469 L 89.386719 61.308594 L 8.238281 61.308594 Z M 8.238281 4.730469 " clip-rule="nonzero"/></clipPath><clipPath id="d3632eef86"><rect x="0" width="92" y="0" height="12"/></clipPath></defs><g clip-path="url(#f7c8e56ad6)"><path fill="#ffffff" d="M 31.84375 21.699219 L 29.980469 23.5625 L 31.042969 24.628906 L 32.109375 25.691406 L 29.964844 27.839844 L 32.109375 29.984375 L 29.964844 32.128906 L 27.816406 29.984375 L 29.964844 27.839844 L 27.816406 25.691406 L 23.925781 29.585938 L 26.070312 31.730469 L 23.957031 33.875 L 28.234375 38.152344 L 23.941406 42.441406 L 21.796875 40.296875 L 19.71875 42.375 L 23.777344 46.484375 L 21.628906 48.628906 L 25.921875 52.921875 L 23.777344 55.066406 L 25.921875 57.214844 L 28.066406 55.066406 L 30.210938 57.214844 L 32.359375 55.066406 L 30.210938 52.921875 L 32.359375 50.777344 L 30.210938 48.628906 L 32.359375 46.484375 L 30.210938 44.339844 L 32.359375 42.195312 L 34.503906 44.339844 L 32.359375 46.484375 L 34.503906 48.628906 L 32.359375 50.777344 L 34.503906 52.921875 L 40.941406 46.484375 L 38.796875 44.339844 L 40.941406 42.195312 L 43.085938 44.339844 L 48.792969 38.632812 L 50.65625 40.496094 L 52.300781 42.144531 L 54.496094 44.339844 L 56.644531 42.195312 L 58.789062 44.339844 L 56.644531 46.484375 L 63.082031 52.921875 L 65.226562 50.777344 L 67.371094 52.921875 L 65.226562 55.066406 L 67.371094 57.214844 L 69.519531 55.066406 L 71.664062 57.214844 L 73.808594 55.066406 L 71.664062 52.921875 L 75.957031 48.628906 L 78.101562 50.777344 L 80.246094 48.628906 L 78.101562 46.484375 L 75.957031 48.628906 L 73.777344 46.484375 L 77.835938 42.375 L 75.753906 40.296875 L 73.609375 42.441406 L 69.320312 38.152344 L 73.59375 33.875 L 71.449219 31.730469 L 73.59375 29.585938 L 69.699219 25.691406 L 67.554688 27.839844 L 69.699219 29.984375 L 67.554688 32.128906 L 65.410156 29.984375 L 67.554688 27.839844 L 65.410156 25.691406 L 67.539062 23.5625 L 65.675781 21.699219 L 48.777344 4.769531 Z M 58.757812 35.757812 L 60.902344 33.609375 L 63.046875 35.757812 L 60.902344 37.902344 Z M 34.503906 35.773438 L 36.648438 33.628906 L 38.796875 35.773438 L 36.648438 37.917969 Z M 65.027344 38.152344 L 67.171875 36.003906 L 69.320312 38.152344 L 67.171875 40.296875 Z M 28.234375 38.152344 L 30.378906 36.003906 L 32.523438 38.152344 L 30.378906 40.296875 Z M 54.480469 40.046875 L 56.625 37.902344 L 58.773438 40.046875 L 56.625 42.195312 Z M 38.777344 40.046875 L 40.925781 37.902344 L 43.070312 40.046875 L 40.925781 42.195312 Z M 60.902344 42.195312 L 63.046875 44.339844 L 60.902344 46.484375 L 58.757812 44.339844 Z M 36.632812 42.195312 L 38.777344 44.339844 L 36.632812 46.484375 L 34.488281 44.339844 Z M 65.191406 42.195312 L 67.339844 44.339844 L 65.191406 46.484375 L 67.339844 48.628906 L 65.191406 50.777344 L 63.046875 48.628906 L 65.191406 46.484375 L 63.046875 44.339844 Z M 69.484375 42.195312 L 73.777344 46.484375 L 71.628906 48.628906 L 67.339844 44.339844 Z M 28.066406 42.195312 L 30.210938 44.339844 L 25.921875 48.628906 L 23.777344 46.484375 Z M 67.339844 52.90625 L 69.484375 50.761719 L 71.628906 52.90625 L 69.484375 55.050781 Z M 25.921875 52.90625 L 28.066406 50.761719 L 30.210938 52.90625 L 28.066406 55.050781 Z M 73.59375 33.875 L 75.738281 31.730469 L 77.882812 33.875 L 75.738281 36.023438 L 77.882812 38.167969 L 75.738281 40.3125 L 73.609375 38.167969 L 75.753906 36.023438 Z M 19.667969 33.875 L 21.8125 31.730469 L 23.957031 33.875 L 21.8125 36.023438 L 23.957031 38.167969 L 21.8125 40.3125 L 19.667969 38.167969 L 21.8125 36.023438 Z M 77.882812 38.167969 L 80.03125 36.023438 L 82.175781 38.167969 L 80.03125 40.3125 Z M 15.375 38.167969 L 17.519531 40.3125 L 19.667969 38.167969 L 17.519531 36.023438 Z M 81.660156 43.824219 L 83.207031 45.371094 L 84.753906 43.824219 L 83.207031 42.277344 Z M 12.796875 43.824219 L 14.34375 45.371094 L 15.890625 43.824219 L 14.34375 42.277344 Z M 17.355469 48.628906 L 19.5 46.484375 L 21.644531 48.628906 L 19.5 50.777344 Z M 87.332031 47.683594 L 88.3125 48.679688 L 89.296875 47.699219 L 88.296875 46.703125 Z M 8.238281 47.699219 L 9.222656 48.679688 L 10.203125 47.683594 L 9.238281 46.703125 Z M 82.390625 48.015625 L 83.375 49.011719 L 84.355469 48.03125 L 83.355469 47.050781 Z M 13.179688 48.015625 L 14.160156 48.996094 L 15.140625 48 L 14.160156 47.015625 Z M 80.082031 52.988281 L 81.628906 51.441406 L 83.175781 52.988281 L 81.628906 54.535156 Z M 14.378906 52.988281 L 15.925781 54.535156 L 17.472656 52.988281 L 15.925781 51.441406 Z M 86.816406 53.703125 L 87.816406 54.683594 L 88.796875 53.703125 L 87.816406 52.722656 Z M 8.753906 53.703125 L 9.738281 54.683594 L 10.734375 53.703125 L 9.738281 52.707031 Z M 73.777344 55.050781 L 75.921875 52.90625 L 78.066406 55.050781 L 75.921875 57.195312 Z M 19.484375 55.066406 L 21.628906 52.921875 L 23.777344 55.066406 L 21.628906 57.214844 Z M 82.34375 57.597656 L 83.324219 58.578125 L 84.304688 57.597656 L 83.324219 56.613281 Z M 13.230469 57.597656 L 14.210938 58.578125 L 15.191406 57.597656 L 14.210938 56.613281 Z M 76.652344 59.875 L 78.199219 61.421875 L 79.746094 59.875 L 78.199219 58.328125 Z M 17.820312 59.875 L 19.367188 61.421875 L 20.914062 59.875 L 19.367188 58.328125 Z M 17.820312 59.875 " fill-opacity="1" fill-rule="evenodd"/></g></svg>